solid ASCII
  facet normal -5.000013e-01 -7.071049e-01 -5.000013e-01
    outer loop
      vertex   -3.750000e+00 -1.767767e+00 -3.750000e+00
      vertex   -3.523288e+00 -1.781166e+00 -3.957763e+00
      vertex   -3.957763e+00 -1.781166e+00 -3.523288e+00
    endloop
  endfacet
  facet normal -5.000005e-01 -7.071061e-01 -5.000005e-01
    outer loop
      vertex   -3.957763e+00 -1.781166e+00 -3.523288e+00
      vertex   -3.523288e+00 -1.781166e+00 -3.957763e+00
      vertex   -4.143429e+00 -1.821159e+00 -3.281063e+00
    endloop
  endfacet
  facet normal -5.000005e-01 -7.071061e-01 -5.000005e-01
    outer loop
      vertex   -4.143429e+00 -1.821159e+00 -3.281063e+00
      vertex   -3.523288e+00 -1.781166e+00 -3.957763e+00
      vertex   -3.281063e+00 -1.821159e+00 -4.143429e+00
    endloop
  endfacet
  facet normal -4.999998e-01 -7.071070e-01 -4.999998e-01
    outer loop
      vertex   -4.143429e+00 -1.821159e+00 -3.281063e+00
      vertex   -3.281063e+00 -1.821159e+00 -4.143429e+00
      vertex   -4.304182e+00 -1.887140e+00 -3.027000e+00
    endloop
  endfacet
  facet normal -4.999998e-01 -7.071070e-01 -4.999998e-01
    outer loop
      vertex   -4.304182e+00 -1.887140e+00 -3.027000e+00
      vertex   -3.281063e+00 -1.821159e+00 -4.143429e+00
      vertex   -3.027000e+00 -1.887140e+00 -4.304182e+00
    endloop
  endfacet
  facet normal -4.999994e-01 -7.071077e-01 -4.999994e-01
    outer loop
      vertex   -4.304182e+00 -1.887140e+00 -3.027000e+00
      vertex   -3.027000e+00 -1.887140e+00 -4.304182e+00
      vertex   -4.437584e+00 -1.978110e+00 -2.764946e+00
    endloop
  endfacet
  facet normal -4.999994e-01 -7.071077e-01 -4.999994e-01
    outer loop
      vertex   -4.437584e+00 -1.978110e+00 -2.764946e+00
      vertex   -3.027000e+00 -1.887140e+00 -4.304182e+00
      vertex   -2.764946e+00 -1.978110e+00 -4.437584e+00
    endloop
  endfacet
  facet normal -5.000003e-01 -7.071063e-01 -5.000003e-01
    outer loop
      vertex   -4.437584e+00 -1.978110e+00 -2.764946e+00
      vertex   -2.764946e+00 -1.978110e+00 -4.437584e+00
      vertex   -4.541616e+00 -2.092688e+00 -2.498876e+00
    endloop
  endfacet
  facet normal -5.000003e-01 -7.071063e-01 -5.000003e-01
    outer loop
      vertex   -4.541616e+00 -2.092688e+00 -2.498876e+00
      vertex   -2.764946e+00 -1.978110e+00 -4.437584e+00
      vertex   -2.498876e+00 -2.092688e+00 -4.541616e+00
    endloop
  endfacet
  facet normal -5.000002e-01 -7.071065e-01 -5.000002e-01
    outer loop
      vertex   -4.541616e+00 -2.092688e+00 -2.498876e+00
      vertex   -2.498876e+00 -2.092688e+00 -4.541616e+00
      vertex   -4.614698e+00 -2.229139e+00 -2.232824e+00
    endloop
  endfacet
  facet normal -5.000002e-01 -7.071065e-01 -5.000002e-01
    outer loop
      vertex   -4.614698e+00 -2.229139e+00 -2.232824e+00
      vertex   -2.498876e+00 -2.092688e+00 -4.541616e+00
      vertex   -2.232824e+00 -2.229139e+00 -4.614698e+00
    endloop
  endfacet
  facet normal -4.999997e-01 -7.071072e-01 -4.999997e-01
    outer loop
      vertex   -4.614698e+00 -2.229139e+00 -2.232824e+00
      vertex   -2.232824e+00 -2.229139e+00 -4.614698e+00
      vertex   -4.655724e+00 -2.385392e+00 -1.970822e+00
    endloop
  endfacet
  facet normal -4.999997e-01 -7.071072e-01 -4.999997e-01
    outer loop
      vertex   -4.655724e+00 -2.385392e+00 -1.970822e+00
      vertex   -2.232824e+00 -2.229139e+00 -4.614698e+00
      vertex   -1.970822e+00 -2.385392e+00 -4.655724e+00
    endloop
  endfacet
  facet normal -4.999998e-01 -7.071071e-01 -4.999998e-01
    outer loop
      vertex   -4.655724e+00 -2.385392e+00 -1.970822e+00
      vertex   -1.970822e+00 -2.385392e+00 -4.655724e+00
      vertex   -4.664071e+00 -2.559082e+00 -1.716841e+00
    endloop
  endfacet
  facet normal -4.999998e-01 -7.071071e-01 -4.999998e-01
    outer loop
      vertex   -4.664071e+00 -2.559082e+00 -1.716841e+00
      vertex   -1.970822e+00 -2.385392e+00 -4.655724e+00
      vertex   -1.716841e+00 -2.559082e+00 -4.664071e+00
    endloop
  endfacet
  facet normal -5.000001e-01 -7.071067e-01 -5.000001e-01
    outer loop
      vertex   -4.664071e+00 -2.559082e+00 -1.716841e+00
      vertex   -1.716841e+00 -2.559082e+00 -4.664071e+00
      vertex   -4.639613e+00 -2.747572e+00 -1.474733e+00
    endloop
  endfacet
  facet normal -5.000001e-01 -7.071067e-01 -5.000001e-01
    outer loop
      vertex   -4.639613e+00 -2.747572e+00 -1.474733e+00
      vertex   -1.716841e+00 -2.559082e+00 -4.664071e+00
      vertex   -1.474733e+00 -2.747572e+00 -4.639613e+00
    endloop
  endfacet
  facet normal -5.000004e-01 -7.071063e-01 -5.000004e-01
    outer loop
      vertex   -4.639613e+00 -2.747572e+00 -1.474733e+00
      vertex   -1.474733e+00 -2.747572e+00 -4.639613e+00
      vertex   -4.582721e+00 -2.948008e+00 -1.248166e+00
    endloop
  endfacet
  facet normal -5.000004e-01 -7.071063e-01 -5.000004e-01
    outer loop
      vertex   -4.582721e+00 -2.948008e+00 -1.248166e+00
      vertex   -1.474733e+00 -2.747572e+00 -4.639613e+00
      vertex   -1.248166e+00 -2.948008e+00 -4.582721e+00
    endloop
  endfacet
  facet normal -4.999996e-01 -7.071074e-01 -4.999996e-01
    outer loop
      vertex   -4.582721e+00 -2.948008e+00 -1.248166e+00
      vertex   -1.248166e+00 -2.948008e+00 -4.582721e+00
      vertex   -4.494256e+00 -3.157350e+00 -1.040576e+00
    endloop
  endfacet
  facet normal -4.999996e-01 -7.071074e-01 -4.999996e-01
    outer loop
      vertex   -4.494256e+00 -3.157350e+00 -1.040576e+00
      vertex   -1.248166e+00 -2.948008e+00 -4.582721e+00
      vertex   -1.040576e+00 -3.157350e+00 -4.494256e+00
    endloop
  endfacet
  facet normal -5.000002e-01 -7.071065e-01 -5.000002e-01
    outer loop
      vertex   -4.494256e+00 -3.157350e+00 -1.040576e+00
      vertex   -1.040576e+00 -3.157350e+00 -4.494256e+00
      vertex   -4.375561e+00 -3.372425e+00 -8.551098e-01
    endloop
  endfacet
  facet normal -5.000002e-01 -7.071065e-01 -5.000002e-01
    outer loop
      vertex   -4.375561e+00 -3.372425e+00 -8.551098e-01
      vertex   -1.040576e+00 -3.157350e+00 -4.494256e+00
      vertex   -8.551098e-01 -3.372425e+00 -4.375561e+00
    endloop
  endfacet
  facet normal -5.000003e-01 -7.071064e-01 -5.000003e-01
    outer loop
      vertex   -4.375561e+00 -3.372425e+00 -8.551098e-01
      vertex   -8.551098e-01 -3.372425e+00 -4.375561e+00
      vertex   -4.228435e+00 -3.589973e+00 -6.945778e-01
    endloop
  endfacet
  facet normal -5.000003e-01 -7.071064e-01 -5.000003e-01
    outer loop
      vertex   -4.228435e+00 -3.589973e+00 -6.945778e-01
      vertex   -8.551098e-01 -3.372425e+00 -4.375561e+00
      vertex   -6.945778e-01 -3.589973e+00 -4.228435e+00
    endloop
  endfacet
  facet normal -4.999999e-01 -7.071070e-01 -4.999999e-01
    outer loop
      vertex   -4.228435e+00 -3.589973e+00 -6.945778e-01
      vertex   -6.945778e-01 -3.589973e+00 -4.228435e+00
      vertex   -4.055107e+00 -3.806694e+00 -5.614140e-01
    endloop
  endfacet
  facet normal -4.999999e-01 -7.071070e-01 -4.999999e-01
    outer loop
      vertex   -4.055107e+00 -3.806694e+00 -5.614140e-01
      vertex   -6.945778e-01 -3.589973e+00 -4.228435e+00
      vertex   -5.614140e-01 -3.806694e+00 -4.055107e+00
    endloop
  endfacet
  facet normal -4.999999e-01 -7.071069e-01 -4.999999e-01
    outer loop
      vertex   -4.055107e+00 -3.806694e+00 -5.614140e-01
      vertex   -5.614140e-01 -3.806694e+00 -4.055107e+00
      vertex   -3.858205e+00 -4.019306e+00 -4.576377e-01
    endloop
  endfacet
  facet normal -4.999999e-01 -7.071069e-01 -4.999999e-01
    outer loop
      vertex   -3.858205e+00 -4.019306e+00 -4.576377e-01
      vertex   -5.614140e-01 -3.806694e+00 -4.055107e+00
      vertex   -4.576377e-01 -4.019306e+00 -3.858205e+00
    endloop
  endfacet
  facet normal -5.000004e-01 -7.071062e-01 -5.000004e-01
    outer loop
      vertex   -3.858205e+00 -4.019306e+00 -4.576377e-01
      vertex   -4.576377e-01 -4.019306e+00 -3.858205e+00
      vertex   -3.640714e+00 -4.224585e+00 -3.848212e-01
    endloop
  endfacet
  facet normal -5.000004e-01 -7.071062e-01 -5.000004e-01
    outer loop
      vertex   -3.640714e+00 -4.224585e+00 -3.848212e-01
      vertex   -4.576377e-01 -4.019306e+00 -3.858205e+00
      vertex   -3.848212e-01 -4.224585e+00 -3.640714e+00
    endloop
  endfacet
  facet normal -4.999997e-01 -7.071072e-01 -4.999997e-01
    outer loop
      vertex   -3.640714e+00 -4.224585e+00 -3.848212e-01
      vertex   -3.848212e-01 -4.224585e+00 -3.640714e+00
      vertex   -3.405932e+00 -4.419417e+00 -3.440686e-01
    endloop
  endfacet
  facet normal -4.999997e-01 -7.071072e-01 -4.999997e-01
    outer loop
      vertex   -3.405932e+00 -4.419417e+00 -3.440686e-01
      vertex   -3.848212e-01 -4.224585e+00 -3.640714e+00
      vertex   -3.440686e-01 -4.419417e+00 -3.405932e+00
    endloop
  endfacet
  facet normal -5.000002e-01 -7.071065e-01 -5.000002e-01
    outer loop
      vertex   -3.405932e+00 -4.419417e+00 -3.440686e-01
      vertex   -3.440686e-01 -4.419417e+00 -3.405932e+00
      vertex   -3.157415e+00 -4.600852e+00 -3.359981e-01
    endloop
  endfacet
  facet normal -5.000002e-01 -7.071065e-01 -5.000002e-01
    outer loop
      vertex   -3.157415e+00 -4.600852e+00 -3.359981e-01
      vertex   -3.440686e-01 -4.419417e+00 -3.405932e+00
      vertex   -3.359981e-01 -4.600852e+00 -3.157415e+00
    endloop
  endfacet
  facet normal -4.999998e-01 -7.071070e-01 -4.999998e-01
    outer loop
      vertex   -3.157415e+00 -4.600852e+00 -3.359981e-01
      vertex   -3.359981e-01 -4.600852e+00 -3.157415e+00
      vertex   -2.898934e+00 -4.766137e+00 -3.607314e-01
    endloop
  endfacet
  facet normal -4.999998e-01 -7.071070e-01 -4.999998e-01
    outer loop
      vertex   -2.898934e+00 -4.766137e+00 -3.607314e-01
      vertex   -3.359981e-01 -4.600852e+00 -3.157415e+00
      vertex   -3.607314e-01 -4.766137e+00 -2.898934e+00
    endloop
  endfacet
  facet normal -5.000000e-01 -7.071067e-01 -5.000000e-01
    outer loop
      vertex   -2.898934e+00 -4.766137e+00 -3.607314e-01
      vertex   -3.607314e-01 -4.766137e+00 -2.898934e+00
      vertex   -2.634405e+00 -4.912767e+00 -4.178940e-01
    endloop
  endfacet
  facet normal -5.000000e-01 -7.071067e-01 -5.000000e-01
    outer loop
      vertex   -2.634405e+00 -4.912767e+00 -4.178940e-01
      vertex   -3.607314e-01 -4.766137e+00 -2.898934e+00
      vertex   -4.178940e-01 -4.912767e+00 -2.634405e+00
    endloop
  endfacet
  facet normal -5.000005e-01 -7.071060e-01 -5.000005e-01
    outer loop
      vertex   -2.634405e+00 -4.912767e+00 -4.178940e-01
      vertex   -4.178940e-01 -4.912767e+00 -2.634405e+00
      vertex   -2.367838e+00 -5.038520e+00 -5.066194e-01
    endloop
  endfacet
  facet normal -5.000005e-01 -7.071060e-01 -5.000005e-01
    outer loop
      vertex   -2.367838e+00 -5.038520e+00 -5.066194e-01
      vertex   -4.178940e-01 -4.912767e+00 -2.634405e+00
      vertex   -5.066194e-01 -5.038520e+00 -2.367838e+00
    endloop
  endfacet
  facet normal -4.999981e-01 -7.071094e-01 -4.999981e-01
    outer loop
      vertex   -2.367838e+00 -5.038520e+00 -5.066194e-01
      vertex   -5.066194e-01 -5.038520e+00 -2.367838e+00
      vertex   -2.103275e+00 -5.141488e+00 -6.255619e-01
    endloop
  endfacet
  facet normal -4.999981e-01 -7.071094e-01 -4.999981e-01
    outer loop
      vertex   -2.103275e+00 -5.141488e+00 -6.255619e-01
      vertex   -5.066194e-01 -5.038520e+00 -2.367838e+00
      vertex   -6.255619e-01 -5.141488e+00 -2.103275e+00
    endloop
  endfacet
  facet normal -5.000018e-01 -7.071043e-01 -5.000018e-01
    outer loop
      vertex   -2.103275e+00 -5.141488e+00 -6.255619e-01
      vertex   -6.255619e-01 -5.141488e+00 -2.103275e+00
      vertex   -1.844726e+00 -5.220113e+00 -7.729192e-01
    endloop
  endfacet
  facet normal -5.000018e-01 -7.071043e-01 -5.000018e-01
    outer loop
      vertex   -1.844726e+00 -5.220113e+00 -7.729192e-01
      vertex   -6.255619e-01 -5.141488e+00 -2.103275e+00
      vertex   -7.729192e-01 -5.220113e+00 -1.844726e+00
    endloop
  endfacet
  facet normal -4.999993e-01 -7.071078e-01 -4.999993e-01
    outer loop
      vertex   -1.844726e+00 -5.220113e+00 -7.729192e-01
      vertex   -7.729192e-01 -5.220113e+00 -1.844726e+00
      vertex   -1.596110e+00 -5.273201e+00 -9.464572e-01
    endloop
  endfacet
  facet normal -4.999993e-01 -7.071078e-01 -4.999993e-01
    outer loop
      vertex   -1.596110e+00 -5.273201e+00 -9.464572e-01
      vertex   -7.729192e-01 -5.220113e+00 -1.844726e+00
      vertex   -9.464572e-01 -5.273201e+00 -1.596110e+00
    endloop
  endfacet
  facet normal -5.000005e-01 -7.071061e-01 -5.000005e-01
    outer loop
      vertex   -1.596110e+00 -5.273201e+00 -9.464572e-01
      vertex   -9.464572e-01 -5.273201e+00 -1.596110e+00
      vertex   -1.361196e+00 -5.299948e+00 -1.143546e+00
    endloop
  endfacet
  facet normal -5.000005e-01 -7.071061e-01 -5.000005e-01
    outer loop
      vertex   -1.361196e+00 -5.299948e+00 -1.143546e+00
      vertex   -9.464572e-01 -5.273201e+00 -1.596110e+00
      vertex   -1.143546e+00 -5.299948e+00 -1.361196e+00
    endloop
  endfacet
  facet normal -5.425823e-01 7.057656e-01 -4.555209e-01
    outer loop
      vertex   -3.750000e+00 -1.767767e+00 -3.750000e+00
      vertex   -3.957763e+00 -1.781166e+00 -3.523288e+00
      vertex   -1.457763e+00 1.754368e+00 -1.023288e+00
    endloop
  endfacet
  facet normal -5.425825e-01 7.057656e-01 -4.555208e-01
    outer loop
      vertex   -3.750000e+00 -1.767767e+00 -3.750000e+00
      vertex   -1.457763e+00 1.754368e+00 -1.023288e+00
      vertex   -1.250000e+00 1.767767e+00 -1.250000e+00
    endloop
  endfacet
  facet normal -4.555209e-01 7.057656e-01 -5.425823e-01
    outer loop
      vertex   -3.523288e+00 -1.781166e+00 -3.957763e+00
      vertex   -3.750000e+00 -1.767767e+00 -3.750000e+00
      vertex   -1.250000e+00 1.767767e+00 -1.250000e+00
    endloop
  endfacet
  facet normal -4.555208e-01 7.057656e-01 -5.425825e-01
    outer loop
      vertex   -3.523288e+00 -1.781166e+00 -3.957763e+00
      vertex   -1.250000e+00 1.767767e+00 -1.250000e+00
      vertex   -1.023288e+00 1.754368e+00 -1.457763e+00
    endloop
  endfacet
  facet normal -3.615562e-01 6.950670e-01 -6.214169e-01
    outer loop
      vertex   -3.281063e+00 -1.821159e+00 -4.143429e+00
      vertex   -3.523288e+00 -1.781166e+00 -3.957763e+00
      vertex   -1.023288e+00 1.754368e+00 -1.457763e+00
    endloop
  endfacet
  facet normal -3.615558e-01 6.950669e-01 -6.214172e-01
    outer loop
      vertex   -3.281063e+00 -1.821159e+00 -4.143429e+00
      vertex   -1.023288e+00 1.754368e+00 -1.457763e+00
      vertex   -7.810634e-01 1.714375e+00 -1.643429e+00
    endloop
  endfacet
  facet normal -2.621114e-01 6.738322e-01 -6.908312e-01
    outer loop
      vertex   -3.027000e+00 -1.887140e+00 -4.304182e+00
      vertex   -3.281063e+00 -1.821159e+00 -4.143429e+00
      vertex   -7.810634e-01 1.714375e+00 -1.643429e+00
    endloop
  endfacet
  facet normal -2.621119e-01 6.738323e-01 -6.908309e-01
    outer loop
      vertex   -3.027000e+00 -1.887140e+00 -4.304182e+00
      vertex   -7.810634e-01 1.714375e+00 -1.643429e+00
      vertex   -5.269994e-01 1.648394e+00 -1.804182e+00
    endloop
  endfacet
  facet normal -1.586878e-01 6.423812e-01 -7.497764e-01
    outer loop
      vertex   -2.764946e+00 -1.978110e+00 -4.437584e+00
      vertex   -3.027000e+00 -1.887140e+00 -4.304182e+00
      vertex   -5.269994e-01 1.648394e+00 -1.804182e+00
    endloop
  endfacet
  facet normal -1.586879e-01 6.423812e-01 -7.497763e-01
    outer loop
      vertex   -2.764946e+00 -1.978110e+00 -4.437584e+00
      vertex   -5.269994e-01 1.648394e+00 -1.804182e+00
      vertex   -2.649458e-01 1.557424e+00 -1.937584e+00
    endloop
  endfacet
  facet normal -5.286584e-02 6.011947e-01 -7.973519e-01
    outer loop
      vertex   -2.498876e+00 -2.092688e+00 -4.541616e+00
      vertex   -2.764946e+00 -1.978110e+00 -4.437584e+00
      vertex   -2.649458e-01 1.557424e+00 -1.937584e+00
    endloop
  endfacet
  facet normal -5.286546e-02 6.011946e-01 -7.973520e-01
    outer loop
      vertex   -2.498876e+00 -2.092688e+00 -4.541616e+00
      vertex   -2.649458e-01 1.557424e+00 -1.937584e+00
      vertex   1.123784e-03 1.442846e+00 -2.041616e+00
    endloop
  endfacet
  facet normal 5.376268e-02 5.508927e-01 -8.328426e-01
    outer loop
      vertex   -2.232824e+00 -2.229139e+00 -4.614698e+00
      vertex   -2.498876e+00 -2.092688e+00 -4.541616e+00
      vertex   1.123784e-03 1.442846e+00 -2.041616e+00
    endloop
  endfacet
  facet normal 5.376234e-02 5.508929e-01 -8.328425e-01
    outer loop
      vertex   -2.232824e+00 -2.229139e+00 -4.614698e+00
      vertex   1.123784e-03 1.442846e+00 -2.041616e+00
      vertex   2.671758e-01 1.306395e+00 -2.114698e+00
    endloop
  endfacet
  facet normal 1.595735e-01 4.922410e-01 -8.557074e-01
    outer loop
      vertex   -1.970822e+00 -2.385392e+00 -4.655724e+00
      vertex   -2.232824e+00 -2.229139e+00 -4.614698e+00
      vertex   2.671758e-01 1.306395e+00 -2.114698e+00
    endloop
  endfacet
  facet normal 1.595726e-01 4.922415e-01 -8.557073e-01
    outer loop
      vertex   -1.970822e+00 -2.385392e+00 -4.655724e+00
      vertex   2.671758e-01 1.306395e+00 -2.114698e+00
      vertex   5.291777e-01 1.150142e+00 -2.155724e+00
    endloop
  endfacet
  facet normal 2.629664e-01 4.261268e-01 -8.656008e-01
    outer loop
      vertex   -1.716841e+00 -2.559082e+00 -4.664071e+00
      vertex   -1.970822e+00 -2.385392e+00 -4.655724e+00
      vertex   5.291777e-01 1.150142e+00 -2.155724e+00
    endloop
  endfacet
  facet normal 2.629666e-01 4.261267e-01 -8.656007e-01
    outer loop
      vertex   -1.716841e+00 -2.559082e+00 -4.664071e+00
      vertex   5.291777e-01 1.150142e+00 -2.155724e+00
      vertex   7.831588e-01 9.764522e-01 -2.164071e+00
    endloop
  endfacet
  facet normal 3.623716e-01 3.535540e-01 -8.623725e-01
    outer loop
      vertex   -1.474733e+00 -2.747572e+00 -4.639613e+00
      vertex   -1.716841e+00 -2.559082e+00 -4.664071e+00
      vertex   7.831588e-01 9.764522e-01 -2.164071e+00
    endloop
  endfacet
  facet normal 3.623727e-01 3.535532e-01 -8.623724e-01
    outer loop
      vertex   -1.474733e+00 -2.747572e+00 -4.639613e+00
      vertex   7.831588e-01 9.764522e-01 -2.164071e+00
      vertex   1.025267e+00 7.879616e-01 -2.139613e+00
    endloop
  endfacet
  facet normal 4.562859e-01 2.756201e-01 -8.460714e-01
    outer loop
      vertex   -1.248166e+00 -2.948008e+00 -4.582721e+00
      vertex   -1.474733e+00 -2.747572e+00 -4.639613e+00
      vertex   1.025267e+00 7.879616e-01 -2.139613e+00
    endloop
  endfacet
  facet normal 4.562851e-01 2.756206e-01 -8.460716e-01
    outer loop
      vertex   -1.248166e+00 -2.948008e+00 -4.582721e+00
      vertex   1.025267e+00 7.879616e-01 -2.139613e+00
      vertex   1.251834e+00 5.875259e-01 -2.082721e+00
    endloop
  endfacet
  facet normal 5.432817e-01 1.935091e-01 -8.169450e-01
    outer loop
      vertex   -1.040576e+00 -3.157350e+00 -4.494256e+00
      vertex   -1.248166e+00 -2.948008e+00 -4.582721e+00
      vertex   1.251834e+00 5.875259e-01 -2.082721e+00
    endloop
  endfacet
  facet normal 5.432813e-01 1.935095e-01 -8.169452e-01
    outer loop
      vertex   -1.040576e+00 -3.157350e+00 -4.494256e+00
      vertex   1.251834e+00 5.875259e-01 -2.082721e+00
      vertex   1.459424e+00 3.781838e-01 -1.994257e+00
    endloop
  endfacet
  facet normal 6.220435e-01 1.084633e-01 -7.754338e-01
    outer loop
      vertex   -8.551098e-01 -3.372425e+00 -4.375561e+00
      vertex   -1.040576e+00 -3.157350e+00 -4.494256e+00
      vertex   1.459424e+00 3.781838e-01 -1.994257e+00
    endloop
  endfacet
  facet normal 6.220440e-01 1.084628e-01 -7.754335e-01
    outer loop
      vertex   -8.551098e-01 -3.372425e+00 -4.375561e+00
      vertex   1.459424e+00 3.781838e-01 -1.994257e+00
      vertex   1.644890e+00 1.631090e-01 -1.875561e+00
    endloop
  endfacet
  facet normal 6.913736e-01 2.177579e-02 -7.221692e-01
    outer loop
      vertex   -6.945778e-01 -3.589973e+00 -4.228435e+00
      vertex   -8.551098e-01 -3.372425e+00 -4.375561e+00
      vertex   1.644890e+00 1.631090e-01 -1.875561e+00
    endloop
  endfacet
  facet normal 6.913738e-01 2.177557e-02 -7.221690e-01
    outer loop
      vertex   -6.945778e-01 -3.589973e+00 -4.228435e+00
      vertex   1.644890e+00 1.631090e-01 -1.875561e+00
      vertex   1.805422e+00 -5.443849e-02 -1.728434e+00
    endloop
  endfacet
  facet normal 7.502235e-01 -6.524186e-02 -6.579576e-01
    outer loop
      vertex   -5.614140e-01 -3.806694e+00 -4.055107e+00
      vertex   -6.945778e-01 -3.589973e+00 -4.228435e+00
      vertex   1.805422e+00 -5.443849e-02 -1.728434e+00
    endloop
  endfacet
  facet normal 7.502238e-01 -6.524221e-02 -6.579572e-01
    outer loop
      vertex   -5.614140e-01 -3.806694e+00 -4.055107e+00
      vertex   1.805422e+00 -5.443849e-02 -1.728434e+00
      vertex   1.938586e+00 -2.711607e-01 -1.555107e+00
    endloop
  endfacet
  facet normal 7.977032e-01 -1.512747e-01 -5.837684e-01
    outer loop
      vertex   -4.576377e-01 -4.019306e+00 -3.858205e+00
      vertex   -5.614140e-01 -3.806694e+00 -4.055107e+00
      vertex   1.938586e+00 -2.711607e-01 -1.555107e+00
    endloop
  endfacet
  facet normal 7.977030e-01 -1.512743e-01 -5.837689e-01
    outer loop
      vertex   -4.576377e-01 -4.019306e+00 -3.858205e+00
      vertex   1.938586e+00 -2.711607e-01 -1.555107e+00
      vertex   2.042362e+00 -4.837724e-01 -1.358205e+00
    endloop
  endfacet
  facet normal 8.330880e-01 -2.350095e-01 -5.007343e-01
    outer loop
      vertex   -3.848212e-01 -4.224585e+00 -3.640714e+00
      vertex   -4.576377e-01 -4.019306e+00 -3.858205e+00
      vertex   2.042362e+00 -4.837724e-01 -1.358205e+00
    endloop
  endfacet
  facet normal 8.330881e-01 -2.350096e-01 -5.007342e-01
    outer loop
      vertex   -3.848212e-01 -4.224585e+00 -3.640714e+00
      vertex   2.042362e+00 -4.837724e-01 -1.358205e+00
      vertex   2.115179e+00 -6.890506e-01 -1.140714e+00
    endloop
  endfacet
  facet normal 8.558451e-01 -3.151842e-01 -4.101074e-01
    outer loop
      vertex   -3.440686e-01 -4.419417e+00 -3.405932e+00
      vertex   -3.848212e-01 -4.224585e+00 -3.640714e+00
      vertex   2.115179e+00 -6.890506e-01 -1.140714e+00
    endloop
  endfacet
  facet normal 8.558451e-01 -3.151841e-01 -4.101074e-01
    outer loop
      vertex   -3.440686e-01 -4.419417e+00 -3.405932e+00
      vertex   2.115179e+00 -6.890506e-01 -1.140714e+00
      vertex   2.155931e+00 -8.838835e-01 -9.059314e-01
    endloop
  endfacet
  facet normal 8.656284e-01 -3.905814e-01 -3.132629e-01
    outer loop
      vertex   -3.359981e-01 -4.600852e+00 -3.157415e+00
      vertex   -3.440686e-01 -4.419417e+00 -3.405932e+00
      vertex   2.155931e+00 -8.838835e-01 -9.059314e-01
    endloop
  endfacet
  facet normal 8.656284e-01 -3.905815e-01 -3.132627e-01
    outer loop
      vertex   -3.359981e-01 -4.600852e+00 -3.157415e+00
      vertex   2.155931e+00 -8.838835e-01 -9.059314e-01
      vertex   2.164002e+00 -1.065318e+00 -6.574149e-01
    endloop
  endfacet
  facet normal 8.622895e-01 -4.600567e-01 -2.116710e-01
    outer loop
      vertex   -3.607314e-01 -4.766137e+00 -2.898934e+00
      vertex   -3.359981e-01 -4.600852e+00 -3.157415e+00
      vertex   2.164002e+00 -1.065318e+00 -6.574149e-01
    endloop
  endfacet
  facet normal 8.622895e-01 -4.600565e-01 -2.116715e-01
    outer loop
      vertex   -3.607314e-01 -4.766137e+00 -2.898934e+00
      vertex   2.164002e+00 -1.065318e+00 -6.574149e-01
      vertex   2.139269e+00 -1.230603e+00 -3.989336e-01
    endloop
  endfacet
  facet normal 8.458791e-01 -5.225586e-01 -1.068696e-01
    outer loop
      vertex   -4.178940e-01 -4.912767e+00 -2.634405e+00
      vertex   -3.607314e-01 -4.766137e+00 -2.898934e+00
      vertex   2.139269e+00 -1.230603e+00 -3.989336e-01
    endloop
  endfacet
  facet normal 8.458791e-01 -5.225585e-01 -1.068698e-01
    outer loop
      vertex   -4.178940e-01 -4.912767e+00 -2.634405e+00
      vertex   2.139269e+00 -1.230603e+00 -3.989336e-01
      vertex   2.082106e+00 -1.377233e+00 -1.344050e-01
    endloop
  endfacet
  facet normal 8.166464e-01 -5.771382e-01 -4.497740e-04
    outer loop
      vertex   -5.066194e-01 -5.038520e+00 -2.367838e+00
      vertex   -4.178940e-01 -4.912767e+00 -2.634405e+00
      vertex   2.082106e+00 -1.377233e+00 -1.344050e-01
    endloop
  endfacet
  facet normal 8.166461e-01 -5.771386e-01 -4.486525e-04
    outer loop
      vertex   -5.066194e-01 -5.038520e+00 -2.367838e+00
      vertex   2.082106e+00 -1.377233e+00 -1.344050e-01
      vertex   1.993380e+00 -1.502986e+00 1.321624e-01
    endloop
  endfacet
  facet normal 7.750332e-01 -6.229701e-01 1.059797e-01
    outer loop
      vertex   -6.255619e-01 -5.141488e+00 -2.103275e+00
      vertex   -5.066194e-01 -5.038520e+00 -2.367838e+00
      vertex   1.993380e+00 -1.502986e+00 1.321624e-01
    endloop
  endfacet
  facet normal 7.750338e-01 -6.229696e-01 1.059782e-01
    outer loop
      vertex   -6.255619e-01 -5.141488e+00 -2.103275e+00
      vertex   1.993380e+00 -1.502986e+00 1.321624e-01
      vertex   1.874438e+00 -1.605955e+00 3.967249e-01
    endloop
  endfacet
  facet normal 7.216732e-01 -6.593571e-01 2.107986e-01
    outer loop
      vertex   -7.729192e-01 -5.220113e+00 -1.844726e+00
      vertex   -6.255619e-01 -5.141488e+00 -2.103275e+00
      vertex   1.874438e+00 -1.605955e+00 3.967249e-01
    endloop
  endfacet
  facet normal 7.216728e-01 -6.593573e-01 2.107993e-01
    outer loop
      vertex   -7.729192e-01 -5.220113e+00 -1.844726e+00
      vertex   1.874438e+00 -1.605955e+00 3.967249e-01
      vertex   1.727081e+00 -1.684579e+00 6.552742e-01
    endloop
  endfacet
  facet normal 6.573719e-01 -6.857499e-01 3.124249e-01
    outer loop
      vertex   -9.464572e-01 -5.273201e+00 -1.596110e+00
      vertex   -7.729192e-01 -5.220113e+00 -1.844726e+00
      vertex   1.727081e+00 -1.684579e+00 6.552742e-01
    endloop
  endfacet
  facet normal 6.573721e-01 -6.857498e-01 3.124245e-01
    outer loop
      vertex   -9.464572e-01 -5.273201e+00 -1.596110e+00
      vertex   1.727081e+00 -1.684579e+00 6.552742e-01
      vertex   1.553543e+00 -1.737668e+00 9.038902e-01
    endloop
  endfacet
  facet normal 5.831043e-01 -7.017474e-01 4.093163e-01
    outer loop
      vertex   -1.143546e+00 -5.299948e+00 -1.361196e+00
      vertex   -9.464572e-01 -5.273201e+00 -1.596110e+00
      vertex   1.553543e+00 -1.737668e+00 9.038902e-01
    endloop
  endfacet
  facet normal 5.831039e-01 -7.017475e-01 4.093169e-01
    outer loop
      vertex   -1.143546e+00 -5.299948e+00 -1.361196e+00
      vertex   1.553543e+00 -1.737668e+00 9.038902e-01
      vertex   1.356454e+00 -1.764414e+00 1.138804e+00
    endloop
  endfacet
  facet normal 5.000000e-01 -7.071068e-01 5.000000e-01
    outer loop
      vertex   -1.361196e+00 -5.299948e+00 -1.143546e+00
      vertex   -1.143546e+00 -5.299948e+00 -1.361196e+00
      vertex   1.356454e+00 -1.764414e+00 1.138804e+00
    endloop
  endfacet
  facet normal 5.000000e-01 -7.071068e-01 5.000000e-01
    outer loop
      vertex   -1.361196e+00 -5.299948e+00 -1.143546e+00
      vertex   1.356454e+00 -1.764414e+00 1.138804e+00
      vertex   1.138804e+00 -1.764414e+00 1.356454e+00
    endloop
  endfacet
  facet normal 4.093164e-01 -7.017474e-01 5.831044e-01
    outer loop
      vertex   -1.596110e+00 -5.273201e+00 -9.464572e-01
      vertex   -1.361196e+00 -5.299948e+00 -1.143546e+00
      vertex   1.138804e+00 -1.764414e+00 1.356454e+00
    endloop
  endfacet
  facet normal 4.093169e-01 -7.017475e-01 5.831039e-01
    outer loop
      vertex   -1.596110e+00 -5.273201e+00 -9.464572e-01
      vertex   1.138804e+00 -1.764414e+00 1.356454e+00
      vertex   9.038902e-01 -1.737668e+00 1.553543e+00
    endloop
  endfacet
  facet normal 3.124249e-01 -6.857499e-01 6.573719e-01
    outer loop
      vertex   -1.844726e+00 -5.220113e+00 -7.729192e-01
      vertex   -1.596110e+00 -5.273201e+00 -9.464572e-01
      vertex   9.038902e-01 -1.737668e+00 1.553543e+00
    endloop
  endfacet
  facet normal 3.124245e-01 -6.857498e-01 6.573721e-01
    outer loop
      vertex   -1.844726e+00 -5.220113e+00 -7.729192e-01
      vertex   9.038902e-01 -1.737668e+00 1.553543e+00
      vertex   6.552742e-01 -1.684579e+00 1.727081e+00
    endloop
  endfacet
  facet normal 2.107986e-01 -6.593571e-01 7.216732e-01
    outer loop
      vertex   -2.103275e+00 -5.141488e+00 -6.255619e-01
      vertex   -1.844726e+00 -5.220113e+00 -7.729192e-01
      vertex   6.552742e-01 -1.684579e+00 1.727081e+00
    endloop
  endfacet
  facet normal 2.107993e-01 -6.593573e-01 7.216728e-01
    outer loop
      vertex   -2.103275e+00 -5.141488e+00 -6.255619e-01
      vertex   6.552742e-01 -1.684579e+00 1.727081e+00
      vertex   3.967249e-01 -1.605955e+00 1.874438e+00
    endloop
  endfacet
  facet normal 1.059797e-01 -6.229702e-01 7.750332e-01
    outer loop
      vertex   -2.367838e+00 -5.038520e+00 -5.066194e-01
      vertex   -2.103275e+00 -5.141488e+00 -6.255619e-01
      vertex   3.967249e-01 -1.605955e+00 1.874438e+00
    endloop
  endfacet
  facet normal 1.059782e-01 -6.229696e-01 7.750339e-01
    outer loop
      vertex   -2.367838e+00 -5.038520e+00 -5.066194e-01
      vertex   3.967249e-01 -1.605955e+00 1.874438e+00
      vertex   1.321624e-01 -1.502986e+00 1.993380e+00
    endloop
  endfacet
  facet normal -4.497356e-04 -5.771381e-01 8.166464e-01
    outer loop
      vertex   -2.634405e+00 -4.912767e+00 -4.178940e-01
      vertex   -2.367838e+00 -5.038520e+00 -5.066194e-01
      vertex   1.321624e-01 -1.502986e+00 1.993380e+00
    endloop
  endfacet
  facet normal -4.486910e-04 -5.771387e-01 8.166460e-01
    outer loop
      vertex   -2.634405e+00 -4.912767e+00 -4.178940e-01
      vertex   1.321624e-01 -1.502986e+00 1.993380e+00
      vertex   -1.344050e-01 -1.377233e+00 2.082106e+00
    endloop
  endfacet
  facet normal -1.068696e-01 -5.225586e-01 8.458791e-01
    outer loop
      vertex   -2.898934e+00 -4.766137e+00 -3.607314e-01
      vertex   -2.634405e+00 -4.912767e+00 -4.178940e-01
      vertex   -1.344050e-01 -1.377233e+00 2.082106e+00
    endloop
  endfacet
  facet normal -1.068698e-01 -5.225585e-01 8.458791e-01
    outer loop
      vertex   -2.898934e+00 -4.766137e+00 -3.607314e-01
      vertex   -1.344050e-01 -1.377233e+00 2.082106e+00
      vertex   -3.989336e-01 -1.230603e+00 2.139269e+00
    endloop
  endfacet
  facet normal -2.116710e-01 -4.600568e-01 8.622895e-01
    outer loop
      vertex   -3.157415e+00 -4.600852e+00 -3.359981e-01
      vertex   -2.898934e+00 -4.766137e+00 -3.607314e-01
      vertex   -3.989336e-01 -1.230603e+00 2.139269e+00
    endloop
  endfacet
  facet normal -2.116714e-01 -4.600564e-01 8.622896e-01
    outer loop
      vertex   -3.157415e+00 -4.600852e+00 -3.359981e-01
      vertex   -3.989336e-01 -1.230603e+00 2.139269e+00
      vertex   -6.574149e-01 -1.065318e+00 2.164002e+00
    endloop
  endfacet
  facet normal -3.132629e-01 -3.905814e-01 8.656284e-01
    outer loop
      vertex   -3.405932e+00 -4.419417e+00 -3.440686e-01
      vertex   -3.157415e+00 -4.600852e+00 -3.359981e-01
      vertex   -6.574149e-01 -1.065318e+00 2.164002e+00
    endloop
  endfacet
  facet normal -3.132627e-01 -3.905815e-01 8.656284e-01
    outer loop
      vertex   -3.405932e+00 -4.419417e+00 -3.440686e-01
      vertex   -6.574149e-01 -1.065318e+00 2.164002e+00
      vertex   -9.059314e-01 -8.838835e-01 2.155931e+00
    endloop
  endfacet
  facet normal -4.101074e-01 -3.151842e-01 8.558451e-01
    outer loop
      vertex   -3.640714e+00 -4.224585e+00 -3.848212e-01
      vertex   -3.405932e+00 -4.419417e+00 -3.440686e-01
      vertex   -9.059314e-01 -8.838835e-01 2.155931e+00
    endloop
  endfacet
  facet normal -4.101074e-01 -3.151841e-01 8.558451e-01
    outer loop
      vertex   -3.640714e+00 -4.224585e+00 -3.848212e-01
      vertex   -9.059314e-01 -8.838835e-01 2.155931e+00
      vertex   -1.140714e+00 -6.890506e-01 2.115179e+00
    endloop
  endfacet
  facet normal -5.007343e-01 -2.350095e-01 8.330880e-01
    outer loop
      vertex   -3.858205e+00 -4.019306e+00 -4.576377e-01
      vertex   -3.640714e+00 -4.224585e+00 -3.848212e-01
      vertex   -1.140714e+00 -6.890506e-01 2.115179e+00
    endloop
  endfacet
  facet normal -5.007342e-01 -2.350096e-01 8.330880e-01
    outer loop
      vertex   -3.858205e+00 -4.019306e+00 -4.576377e-01
      vertex   -1.140714e+00 -6.890506e-01 2.115179e+00
      vertex   -1.358205e+00 -4.837724e-01 2.042362e+00
    endloop
  endfacet
  facet normal -5.837684e-01 -1.512747e-01 7.977032e-01
    outer loop
      vertex   -4.055107e+00 -3.806694e+00 -5.614140e-01
      vertex   -3.858205e+00 -4.019306e+00 -4.576377e-01
      vertex   -1.358205e+00 -4.837724e-01 2.042362e+00
    endloop
  endfacet
  facet normal -5.837688e-01 -1.512742e-01 7.977030e-01
    outer loop
      vertex   -4.055107e+00 -3.806694e+00 -5.614140e-01
      vertex   -1.358205e+00 -4.837724e-01 2.042362e+00
      vertex   -1.555107e+00 -2.711607e-01 1.938586e+00
    endloop
  endfacet
  facet normal -6.579575e-01 -6.524184e-02 7.502235e-01
    outer loop
      vertex   -4.228435e+00 -3.589973e+00 -6.945778e-01
      vertex   -4.055107e+00 -3.806694e+00 -5.614140e-01
      vertex   -1.555107e+00 -2.711607e-01 1.938586e+00
    endloop
  endfacet
  facet normal -6.579573e-01 -6.524224e-02 7.502238e-01
    outer loop
      vertex   -4.228435e+00 -3.589973e+00 -6.945778e-01
      vertex   -1.555107e+00 -2.711607e-01 1.938586e+00
      vertex   -1.728434e+00 -5.443849e-02 1.805422e+00
    endloop
  endfacet
  facet normal -7.221692e-01 2.177580e-02 6.913736e-01
    outer loop
      vertex   -4.375561e+00 -3.372425e+00 -8.551098e-01
      vertex   -4.228435e+00 -3.589973e+00 -6.945778e-01
      vertex   -1.728434e+00 -5.443849e-02 1.805422e+00
    endloop
  endfacet
  facet normal -7.221691e-01 2.177555e-02 6.913738e-01
    outer loop
      vertex   -4.375561e+00 -3.372425e+00 -8.551098e-01
      vertex   -1.728434e+00 -5.443849e-02 1.805422e+00
      vertex   -1.875561e+00 1.631090e-01 1.644890e+00
    endloop
  endfacet
  facet normal -7.754338e-01 1.084633e-01 6.220435e-01
    outer loop
      vertex   -4.494256e+00 -3.157350e+00 -1.040576e+00
      vertex   -4.375561e+00 -3.372425e+00 -8.551098e-01
      vertex   -1.875561e+00 1.631090e-01 1.644890e+00
    endloop
  endfacet
  facet normal -7.754335e-01 1.084627e-01 6.220440e-01
    outer loop
      vertex   -4.494256e+00 -3.157350e+00 -1.040576e+00
      vertex   -1.875561e+00 1.631090e-01 1.644890e+00
      vertex   -1.994257e+00 3.781838e-01 1.459424e+00
    endloop
  endfacet
  facet normal -8.169450e-01 1.935091e-01 5.432817e-01
    outer loop
      vertex   -4.582721e+00 -2.948008e+00 -1.248166e+00
      vertex   -4.494256e+00 -3.157350e+00 -1.040576e+00
      vertex   -1.994257e+00 3.781838e-01 1.459424e+00
    endloop
  endfacet
  facet normal -8.169452e-01 1.935096e-01 5.432813e-01
    outer loop
      vertex   -4.582721e+00 -2.948008e+00 -1.248166e+00
      vertex   -1.994257e+00 3.781838e-01 1.459424e+00
      vertex   -2.082721e+00 5.875259e-01 1.251834e+00
    endloop
  endfacet
  facet normal -8.460714e-01 2.756200e-01 4.562858e-01
    outer loop
      vertex   -4.639613e+00 -2.747572e+00 -1.474733e+00
      vertex   -4.582721e+00 -2.948008e+00 -1.248166e+00
      vertex   -2.082721e+00 5.875259e-01 1.251834e+00
    endloop
  endfacet
  facet normal -8.460716e-01 2.756207e-01 4.562852e-01
    outer loop
      vertex   -4.639613e+00 -2.747572e+00 -1.474733e+00
      vertex   -2.082721e+00 5.875259e-01 1.251834e+00
      vertex   -2.139613e+00 7.879616e-01 1.025267e+00
    endloop
  endfacet
  facet normal -8.623725e-01 3.535541e-01 3.623716e-01
    outer loop
      vertex   -4.664071e+00 -2.559082e+00 -1.716841e+00
      vertex   -4.639613e+00 -2.747572e+00 -1.474733e+00
      vertex   -2.139613e+00 7.879616e-01 1.025267e+00
    endloop
  endfacet
  facet normal -8.623724e-01 3.535531e-01 3.623727e-01
    outer loop
      vertex   -4.664071e+00 -2.559082e+00 -1.716841e+00
      vertex   -2.139613e+00 7.879616e-01 1.025267e+00
      vertex   -2.164071e+00 9.764522e-01 7.831588e-01
    endloop
  endfacet
  facet normal -8.656007e-01 4.261268e-01 2.629664e-01
    outer loop
      vertex   -4.655724e+00 -2.385392e+00 -1.970822e+00
      vertex   -4.664071e+00 -2.559082e+00 -1.716841e+00
      vertex   -2.164071e+00 9.764522e-01 7.831588e-01
    endloop
  endfacet
  facet normal -8.656008e-01 4.261266e-01 2.629666e-01
    outer loop
      vertex   -4.655724e+00 -2.385392e+00 -1.970822e+00
      vertex   -2.164071e+00 9.764522e-01 7.831588e-01
      vertex   -2.155724e+00 1.150142e+00 5.291777e-01
    endloop
  endfacet
  facet normal -8.557074e-01 4.922410e-01 1.595734e-01
    outer loop
      vertex   -4.614698e+00 -2.229139e+00 -2.232824e+00
      vertex   -4.655724e+00 -2.385392e+00 -1.970822e+00
      vertex   -2.155724e+00 1.150142e+00 5.291777e-01
    endloop
  endfacet
  facet normal -8.557072e-01 4.922415e-01 1.595726e-01
    outer loop
      vertex   -4.614698e+00 -2.229139e+00 -2.232824e+00
      vertex   -2.155724e+00 1.150142e+00 5.291777e-01
      vertex   -2.114698e+00 1.306395e+00 2.671758e-01
    endloop
  endfacet
  facet normal -8.328426e-01 5.508927e-01 5.376267e-02
    outer loop
      vertex   -4.541616e+00 -2.092688e+00 -2.498876e+00
      vertex   -4.614698e+00 -2.229139e+00 -2.232824e+00
      vertex   -2.114698e+00 1.306395e+00 2.671758e-01
    endloop
  endfacet
  facet normal -8.328425e-01 5.508929e-01 5.376235e-02
    outer loop
      vertex   -4.541616e+00 -2.092688e+00 -2.498876e+00
      vertex   -2.114698e+00 1.306395e+00 2.671758e-01
      vertex   -2.041616e+00 1.442846e+00 1.123784e-03
    endloop
  endfacet
  facet normal -7.973519e-01 6.011948e-01 -5.286583e-02
    outer loop
      vertex   -4.437584e+00 -1.978110e+00 -2.764946e+00
      vertex   -4.541616e+00 -2.092688e+00 -2.498876e+00
      vertex   -2.041616e+00 1.442846e+00 1.123784e-03
    endloop
  endfacet
  facet normal -7.973521e-01 6.011946e-01 -5.286547e-02
    outer loop
      vertex   -4.437584e+00 -1.978110e+00 -2.764946e+00
      vertex   -2.041616e+00 1.442846e+00 1.123784e-03
      vertex   -1.937584e+00 1.557424e+00 -2.649458e-01
    endloop
  endfacet
  facet normal -7.497764e-01 6.423812e-01 -1.586878e-01
    outer loop
      vertex   -4.304182e+00 -1.887140e+00 -3.027000e+00
      vertex   -4.437584e+00 -1.978110e+00 -2.764946e+00
      vertex   -1.937584e+00 1.557424e+00 -2.649458e-01
    endloop
  endfacet
  facet normal -7.497763e-01 6.423812e-01 -1.586879e-01
    outer loop
      vertex   -4.304182e+00 -1.887140e+00 -3.027000e+00
      vertex   -1.937584e+00 1.557424e+00 -2.649458e-01
      vertex   -1.804182e+00 1.648394e+00 -5.269994e-01
    endloop
  endfacet
  facet normal -6.908312e-01 6.738322e-01 -2.621114e-01
    outer loop
      vertex   -4.143429e+00 -1.821159e+00 -3.281063e+00
      vertex   -4.304182e+00 -1.887140e+00 -3.027000e+00
      vertex   -1.804182e+00 1.648394e+00 -5.269994e-01
    endloop
  endfacet
  facet normal -6.908309e-01 6.738324e-01 -2.621119e-01
    outer loop
      vertex   -4.143429e+00 -1.821159e+00 -3.281063e+00
      vertex   -1.804182e+00 1.648394e+00 -5.269994e-01
      vertex   -1.643429e+00 1.714375e+00 -7.810634e-01
    endloop
  endfacet
  facet normal -6.214169e-01 6.950670e-01 -3.615562e-01
    outer loop
      vertex   -3.957763e+00 -1.781166e+00 -3.523288e+00
      vertex   -4.143429e+00 -1.821159e+00 -3.281063e+00
      vertex   -1.643429e+00 1.714375e+00 -7.810634e-01
    endloop
  endfacet
  facet normal -6.214172e-01 6.950669e-01 -3.615558e-01
    outer loop
      vertex   -1.457763e+00 1.754368e+00 -1.023288e+00
      vertex   -3.957763e+00 -1.781166e+00 -3.523288e+00
      vertex   -1.643429e+00 1.714375e+00 -7.810634e-01
    endloop
  endfacet
  facet normal -4.555205e-01 7.057656e-01 -5.425827e-01
    outer loop
      vertex   1.476712e+00 5.289901e+00 1.042237e+00
      vertex   -1.023288e+00 1.754368e+00 -1.457763e+00
      vertex   1.250000e+00 5.303301e+00 1.250000e+00
    endloop
  endfacet
  facet normal -4.555208e-01 7.057656e-01 -5.425825e-01
    outer loop
      vertex   -1.023288e+00 1.754368e+00 -1.457763e+00
      vertex   -1.250000e+00 1.767767e+00 -1.250000e+00
      vertex   1.250000e+00 5.303301e+00 1.250000e+00
    endloop
  endfacet
  facet normal -5.425827e-01 7.057656e-01 -4.555205e-01
    outer loop
      vertex   1.250000e+00 5.303301e+00 1.250000e+00
      vertex   -1.250000e+00 1.767767e+00 -1.250000e+00
      vertex   1.042237e+00 5.289901e+00 1.476712e+00
    endloop
  endfacet
  facet normal -5.425825e-01 7.057656e-01 -4.555208e-01
    outer loop
      vertex   -1.250000e+00 1.767767e+00 -1.250000e+00
      vertex   -1.457763e+00 1.754368e+00 -1.023288e+00
      vertex   1.042237e+00 5.289901e+00 1.476712e+00
    endloop
  endfacet
  facet normal -6.214166e-01 6.950671e-01 -3.615566e-01
    outer loop
      vertex   1.042237e+00 5.289901e+00 1.476712e+00
      vertex   -1.457763e+00 1.754368e+00 -1.023288e+00
      vertex   8.565713e-01 5.249909e+00 1.718937e+00
    endloop
  endfacet
  facet normal -6.214173e-01 6.950669e-01 -3.615558e-01
    outer loop
      vertex   -1.457763e+00 1.754368e+00 -1.023288e+00
      vertex   -1.643429e+00 1.714375e+00 -7.810634e-01
      vertex   8.565713e-01 5.249909e+00 1.718937e+00
    endloop
  endfacet
  facet normal -6.908309e-01 6.738323e-01 -2.621120e-01
    outer loop
      vertex   8.565713e-01 5.249909e+00 1.718937e+00
      vertex   -1.643429e+00 1.714375e+00 -7.810634e-01
      vertex   6.958184e-01 5.183928e+00 1.973001e+00
    endloop
  endfacet
  facet normal -6.908309e-01 6.738323e-01 -2.621120e-01
    outer loop
      vertex   -1.643429e+00 1.714375e+00 -7.810634e-01
      vertex   -1.804182e+00 1.648394e+00 -5.269994e-01
      vertex   6.958184e-01 5.183928e+00 1.973001e+00
    endloop
  endfacet
  facet normal -7.497762e-01 6.423813e-01 -1.586882e-01
    outer loop
      vertex   6.958184e-01 5.183928e+00 1.973001e+00
      vertex   -1.804182e+00 1.648394e+00 -5.269994e-01
      vertex   5.624158e-01 5.092958e+00 2.235054e+00
    endloop
  endfacet
  facet normal -7.497763e-01 6.423812e-01 -1.586880e-01
    outer loop
      vertex   -1.804182e+00 1.648394e+00 -5.269994e-01
      vertex   -1.937584e+00 1.557424e+00 -2.649458e-01
      vertex   5.624158e-01 5.092958e+00 2.235054e+00
    endloop
  endfacet
  facet normal -7.973522e-01 6.011944e-01 -5.286511e-02
    outer loop
      vertex   5.624158e-01 5.092958e+00 2.235054e+00
      vertex   -1.937584e+00 1.557424e+00 -2.649458e-01
      vertex   4.583842e-01 4.978380e+00 2.501124e+00
    endloop
  endfacet
  facet normal -7.973521e-01 6.011946e-01 -5.286548e-02
    outer loop
      vertex   -1.937584e+00 1.557424e+00 -2.649458e-01
      vertex   -2.041616e+00 1.442846e+00 1.123784e-03
      vertex   4.583842e-01 4.978380e+00 2.501124e+00
    endloop
  endfacet
  facet normal -8.328425e-01 5.508928e-01 5.376242e-02
    outer loop
      vertex   4.583842e-01 4.978380e+00 2.501124e+00
      vertex   -2.041616e+00 1.442846e+00 1.123784e-03
      vertex   3.853022e-01 4.841929e+00 2.767176e+00
    endloop
  endfacet
  facet normal -8.328425e-01 5.508929e-01 5.376234e-02
    outer loop
      vertex   -2.041616e+00 1.442846e+00 1.123784e-03
      vertex   -2.114698e+00 1.306395e+00 2.671758e-01
      vertex   3.853022e-01 4.841929e+00 2.767176e+00
    endloop
  endfacet
  facet normal -8.557073e-01 4.922412e-01 1.595731e-01
    outer loop
      vertex   3.853022e-01 4.841929e+00 2.767176e+00
      vertex   -2.114698e+00 1.306395e+00 2.671758e-01
      vertex   3.442763e-01 4.685676e+00 3.029178e+00
    endloop
  endfacet
  facet normal -8.557072e-01 4.922415e-01 1.595726e-01
    outer loop
      vertex   -2.114698e+00 1.306395e+00 2.671758e-01
      vertex   -2.155724e+00 1.150142e+00 5.291777e-01
      vertex   3.442763e-01 4.685676e+00 3.029178e+00
    endloop
  endfacet
  facet normal -8.656007e-01 4.261271e-01 2.629661e-01
    outer loop
      vertex   3.442763e-01 4.685676e+00 3.029178e+00
      vertex   -2.155724e+00 1.150142e+00 5.291777e-01
      vertex   3.359292e-01 4.511986e+00 3.283159e+00
    endloop
  endfacet
  facet normal -8.656007e-01 4.261267e-01 2.629666e-01
    outer loop
      vertex   -2.155724e+00 1.150142e+00 5.291777e-01
      vertex   -2.164071e+00 9.764522e-01 7.831588e-01
      vertex   3.359292e-01 4.511986e+00 3.283159e+00
    endloop
  endfacet
  facet normal -8.623724e-01 3.535531e-01 3.623728e-01
    outer loop
      vertex   3.359292e-01 4.511986e+00 3.283159e+00
      vertex   -2.164071e+00 9.764522e-01 7.831588e-01
      vertex   3.603871e-01 4.323495e+00 3.525267e+00
    endloop
  endfacet
  facet normal -8.623724e-01 3.535532e-01 3.623727e-01
    outer loop
      vertex   -2.164071e+00 9.764522e-01 7.831588e-01
      vertex   -2.139613e+00 7.879616e-01 1.025267e+00
      vertex   3.603871e-01 4.323495e+00 3.525267e+00
    endloop
  endfacet
  facet normal -8.460716e-01 2.756206e-01 4.562852e-01
    outer loop
      vertex   3.603871e-01 4.323495e+00 3.525267e+00
      vertex   -2.139613e+00 7.879616e-01 1.025267e+00
      vertex   4.172793e-01 4.123060e+00 3.751834e+00
    endloop
  endfacet
  facet normal -8.460716e-01 2.756206e-01 4.562852e-01
    outer loop
      vertex   -2.139613e+00 7.879616e-01 1.025267e+00
      vertex   -2.082721e+00 5.875259e-01 1.251834e+00
      vertex   4.172793e-01 4.123060e+00 3.751834e+00
    endloop
  endfacet
  facet normal -8.169452e-01 1.935095e-01 5.432814e-01
    outer loop
      vertex   4.172793e-01 4.123060e+00 3.751834e+00
      vertex   -2.082721e+00 5.875259e-01 1.251834e+00
      vertex   5.057433e-01 3.913718e+00 3.959424e+00
    endloop
  endfacet
  facet normal -8.169452e-01 1.935096e-01 5.432813e-01
    outer loop
      vertex   -2.082721e+00 5.875259e-01 1.251834e+00
      vertex   -1.994257e+00 3.781838e-01 1.459424e+00
      vertex   5.057433e-01 3.913718e+00 3.959424e+00
    endloop
  endfacet
  facet normal -7.754336e-01 1.084630e-01 6.220438e-01
    outer loop
      vertex   5.057433e-01 3.913718e+00 3.959424e+00
      vertex   -1.994257e+00 3.781838e-01 1.459424e+00
      vertex   6.244389e-01 3.698643e+00 4.144890e+00
    endloop
  endfacet
  facet normal -7.754335e-01 1.084628e-01 6.220440e-01
    outer loop
      vertex   -1.994257e+00 3.781838e-01 1.459424e+00
      vertex   -1.875561e+00 1.631090e-01 1.644890e+00
      vertex   6.244389e-01 3.698643e+00 4.144890e+00
    endloop
  endfacet
  facet normal -7.221692e-01 2.177580e-02 6.913736e-01
    outer loop
      vertex   6.244389e-01 3.698643e+00 4.144890e+00
      vertex   -1.875561e+00 1.631090e-01 1.644890e+00
      vertex   7.715655e-01 3.481095e+00 4.305422e+00
    endloop
  endfacet
  facet normal -7.221691e-01 2.177553e-02 6.913738e-01
    outer loop
      vertex   -1.875561e+00 1.631090e-01 1.644890e+00
      vertex   -1.728434e+00 -5.443849e-02 1.805422e+00
      vertex   7.715655e-01 3.481095e+00 4.305422e+00
    endloop
  endfacet
  facet normal -6.579574e-01 -6.524213e-02 7.502236e-01
    outer loop
      vertex   7.715655e-01 3.481095e+00 4.305422e+00
      vertex   -1.728434e+00 -5.443849e-02 1.805422e+00
      vertex   9.448931e-01 3.264373e+00 4.438586e+00
    endloop
  endfacet
  facet normal -6.579573e-01 -6.524229e-02 7.502237e-01
    outer loop
      vertex   -1.728434e+00 -5.443849e-02 1.805422e+00
      vertex   -1.555107e+00 -2.711607e-01 1.938586e+00
      vertex   9.448931e-01 3.264373e+00 4.438586e+00
    endloop
  endfacet
  facet normal -5.837681e-01 -1.512751e-01 7.977034e-01
    outer loop
      vertex   9.448931e-01 3.264373e+00 4.438586e+00
      vertex   -1.555107e+00 -2.711607e-01 1.938586e+00
      vertex   1.141795e+00 3.051761e+00 4.542362e+00
    endloop
  endfacet
  facet normal -5.837688e-01 -1.512742e-01 7.977030e-01
    outer loop
      vertex   -1.555107e+00 -2.711607e-01 1.938586e+00
      vertex   -1.358205e+00 -4.837724e-01 2.042362e+00
      vertex   1.141795e+00 3.051761e+00 4.542362e+00
    endloop
  endfacet
  facet normal -5.007348e-01 -2.350091e-01 8.330879e-01
    outer loop
      vertex   1.141795e+00 3.051761e+00 4.542362e+00
      vertex   -1.358205e+00 -4.837724e-01 2.042362e+00
      vertex   1.359286e+00 2.846483e+00 4.615179e+00
    endloop
  endfacet
  facet normal -5.007343e-01 -2.350096e-01 8.330880e-01
    outer loop
      vertex   -1.358205e+00 -4.837724e-01 2.042362e+00
      vertex   -1.140714e+00 -6.890506e-01 2.115179e+00
      vertex   1.359286e+00 2.846483e+00 4.615179e+00
    endloop
  endfacet
  facet normal -4.101075e-01 -3.151841e-01 8.558451e-01
    outer loop
      vertex   1.359286e+00 2.846483e+00 4.615179e+00
      vertex   -1.140714e+00 -6.890506e-01 2.115179e+00
      vertex   1.594069e+00 2.651650e+00 4.655932e+00
    endloop
  endfacet
  facet normal -4.101074e-01 -3.151842e-01 8.558451e-01
    outer loop
      vertex   -1.140714e+00 -6.890506e-01 2.115179e+00
      vertex   -9.059314e-01 -8.838835e-01 2.155931e+00
      vertex   1.594069e+00 2.651650e+00 4.655932e+00
    endloop
  endfacet
  facet normal -3.132626e-01 -3.905816e-01 8.656284e-01
    outer loop
      vertex   1.594069e+00 2.651650e+00 4.655932e+00
      vertex   -9.059314e-01 -8.838835e-01 2.155931e+00
      vertex   1.842585e+00 2.470216e+00 4.664002e+00
    endloop
  endfacet
  facet normal -3.132627e-01 -3.905816e-01 8.656284e-01
    outer loop
      vertex   -9.059314e-01 -8.838835e-01 2.155931e+00
      vertex   -6.574149e-01 -1.065318e+00 2.164002e+00
      vertex   1.842585e+00 2.470216e+00 4.664002e+00
    endloop
  endfacet
  facet normal -2.116709e-01 -4.600569e-01 8.622895e-01
    outer loop
      vertex   1.842585e+00 2.470216e+00 4.664002e+00
      vertex   -6.574149e-01 -1.065318e+00 2.164002e+00
      vertex   2.101066e+00 2.304931e+00 4.639269e+00
    endloop
  endfacet
  facet normal -2.116715e-01 -4.600564e-01 8.622895e-01
    outer loop
      vertex   -6.574149e-01 -1.065318e+00 2.164002e+00
      vertex   -3.989336e-01 -1.230603e+00 2.139269e+00
      vertex   2.101066e+00 2.304931e+00 4.639269e+00
    endloop
  endfacet
  facet normal -1.068701e-01 -5.225583e-01 8.458792e-01
    outer loop
      vertex   2.101066e+00 2.304931e+00 4.639269e+00
      vertex   -3.989336e-01 -1.230603e+00 2.139269e+00
      vertex   2.365595e+00 2.158301e+00 4.582106e+00
    endloop
  endfacet
  facet normal -1.068698e-01 -5.225585e-01 8.458791e-01
    outer loop
      vertex   -3.989336e-01 -1.230603e+00 2.139269e+00
      vertex   -1.344050e-01 -1.377233e+00 2.082106e+00
      vertex   2.365595e+00 2.158301e+00 4.582106e+00
    endloop
  endfacet
  facet normal -4.489294e-04 -5.771386e-01 8.166461e-01
    outer loop
      vertex   2.365595e+00 2.158301e+00 4.582106e+00
      vertex   -1.344050e-01 -1.377233e+00 2.082106e+00
      vertex   2.632162e+00 2.032548e+00 4.493380e+00
    endloop
  endfacet
  facet normal -4.486960e-04 -5.771387e-01 8.166460e-01
    outer loop
      vertex   -1.344050e-01 -1.377233e+00 2.082106e+00
      vertex   1.321624e-01 -1.502986e+00 1.993380e+00
      vertex   2.632162e+00 2.032548e+00 4.493380e+00
    endloop
  endfacet
  facet normal 1.059781e-01 -6.229696e-01 7.750339e-01
    outer loop
      vertex   2.632162e+00 2.032548e+00 4.493380e+00
      vertex   1.321624e-01 -1.502986e+00 1.993380e+00
      vertex   2.896725e+00 1.929579e+00 4.374438e+00
    endloop
  endfacet
  facet normal 1.059782e-01 -6.229696e-01 7.750338e-01
    outer loop
      vertex   1.321624e-01 -1.502986e+00 1.993380e+00
      vertex   3.967249e-01 -1.605955e+00 1.874438e+00
      vertex   2.896725e+00 1.929579e+00 4.374438e+00
    endloop
  endfacet
  facet normal 2.107996e-01 -6.593574e-01 7.216726e-01
    outer loop
      vertex   2.896725e+00 1.929579e+00 4.374438e+00
      vertex   3.967249e-01 -1.605955e+00 1.874438e+00
      vertex   3.155274e+00 1.850955e+00 4.227081e+00
    endloop
  endfacet
  facet normal 2.107993e-01 -6.593573e-01 7.216728e-01
    outer loop
      vertex   3.967249e-01 -1.605955e+00 1.874438e+00
      vertex   6.552742e-01 -1.684579e+00 1.727081e+00
      vertex   3.155274e+00 1.850955e+00 4.227081e+00
    endloop
  endfacet
  facet normal 3.124253e-01 -6.857500e-01 6.573716e-01
    outer loop
      vertex   3.155274e+00 1.850955e+00 4.227081e+00
      vertex   6.552742e-01 -1.684579e+00 1.727081e+00
      vertex   3.403890e+00 1.797866e+00 4.053543e+00
    endloop
  endfacet
  facet normal 3.124246e-01 -6.857498e-01 6.573722e-01
    outer loop
      vertex   6.552742e-01 -1.684579e+00 1.727081e+00
      vertex   9.038902e-01 -1.737668e+00 1.553543e+00
      vertex   3.403890e+00 1.797866e+00 4.053543e+00
    endloop
  endfacet
  facet normal 4.093161e-01 -7.017473e-01 5.831046e-01
    outer loop
      vertex   3.403890e+00 1.797866e+00 4.053543e+00
      vertex   9.038902e-01 -1.737668e+00 1.553543e+00
      vertex   3.638804e+00 1.771120e+00 3.856454e+00
    endloop
  endfacet
  facet normal 4.093169e-01 -7.017475e-01 5.831039e-01
    outer loop
      vertex   9.038902e-01 -1.737668e+00 1.553543e+00
      vertex   1.138804e+00 -1.764414e+00 1.356454e+00
      vertex   3.638804e+00 1.771120e+00 3.856454e+00
    endloop
  endfacet
  facet normal 5.000000e-01 -7.071068e-01 5.000000e-01
    outer loop
      vertex   3.638804e+00 1.771120e+00 3.856454e+00
      vertex   1.138804e+00 -1.764414e+00 1.356454e+00
      vertex   3.856454e+00 1.771120e+00 3.638804e+00
    endloop
  endfacet
  facet normal 5.000000e-01 -7.071068e-01 5.000000e-01
    outer loop
      vertex   1.138804e+00 -1.764414e+00 1.356454e+00
      vertex   1.356454e+00 -1.764414e+00 1.138804e+00
      vertex   3.856454e+00 1.771120e+00 3.638804e+00
    endloop
  endfacet
  facet normal 5.831046e-01 -7.017474e-01 4.093161e-01
    outer loop
      vertex   3.856454e+00 1.771120e+00 3.638804e+00
      vertex   1.356454e+00 -1.764414e+00 1.138804e+00
      vertex   4.053543e+00 1.797866e+00 3.403890e+00
    endloop
  endfacet
  facet normal 5.831039e-01 -7.017474e-01 4.093169e-01
    outer loop
      vertex   1.356454e+00 -1.764414e+00 1.138804e+00
      vertex   1.553543e+00 -1.737668e+00 9.038902e-01
      vertex   4.053543e+00 1.797866e+00 3.403890e+00
    endloop
  endfacet
  facet normal 6.573717e-01 -6.857499e-01 3.124253e-01
    outer loop
      vertex   4.053543e+00 1.797866e+00 3.403890e+00
      vertex   1.553543e+00 -1.737668e+00 9.038902e-01
      vertex   4.227081e+00 1.850955e+00 3.155274e+00
    endloop
  endfacet
  facet normal 6.573721e-01 -6.857498e-01 3.124245e-01
    outer loop
      vertex   1.553543e+00 -1.737668e+00 9.038902e-01
      vertex   1.727081e+00 -1.684579e+00 6.552742e-01
      vertex   4.227081e+00 1.850955e+00 3.155274e+00
    endloop
  endfacet
  facet normal 7.216726e-01 -6.593574e-01 2.107996e-01
    outer loop
      vertex   4.227081e+00 1.850955e+00 3.155274e+00
      vertex   1.727081e+00 -1.684579e+00 6.552742e-01
      vertex   4.374438e+00 1.929579e+00 2.896725e+00
    endloop
  endfacet
  facet normal 7.216728e-01 -6.593573e-01 2.107993e-01
    outer loop
      vertex   1.727081e+00 -1.684579e+00 6.552742e-01
      vertex   1.874438e+00 -1.605955e+00 3.967249e-01
      vertex   4.374438e+00 1.929579e+00 2.896725e+00
    endloop
  endfacet
  facet normal 7.750339e-01 -6.229696e-01 1.059781e-01
    outer loop
      vertex   4.374438e+00 1.929579e+00 2.896725e+00
      vertex   1.874438e+00 -1.605955e+00 3.967249e-01
      vertex   4.493380e+00 2.032548e+00 2.632162e+00
    endloop
  endfacet
  facet normal 7.750338e-01 -6.229696e-01 1.059782e-01
    outer loop
      vertex   1.874438e+00 -1.605955e+00 3.967249e-01
      vertex   1.993380e+00 -1.502986e+00 1.321624e-01
      vertex   4.493380e+00 2.032548e+00 2.632162e+00
    endloop
  endfacet
  facet normal 8.166461e-01 -5.771386e-01 -4.489380e-04
    outer loop
      vertex   4.493380e+00 2.032548e+00 2.632162e+00
      vertex   1.993380e+00 -1.502986e+00 1.321624e-01
      vertex   4.582106e+00 2.158301e+00 2.365595e+00
    endloop
  endfacet
  facet normal 8.166460e-01 -5.771387e-01 -4.486874e-04
    outer loop
      vertex   1.993380e+00 -1.502986e+00 1.321624e-01
      vertex   2.082106e+00 -1.377233e+00 -1.344050e-01
      vertex   4.582106e+00 2.158301e+00 2.365595e+00
    endloop
  endfacet
  facet normal 8.458792e-01 -5.225583e-01 -1.068701e-01
    outer loop
      vertex   4.582106e+00 2.158301e+00 2.365595e+00
      vertex   2.082106e+00 -1.377233e+00 -1.344050e-01
      vertex   4.639269e+00 2.304931e+00 2.101066e+00
    endloop
  endfacet
  facet normal 8.458791e-01 -5.225585e-01 -1.068698e-01
    outer loop
      vertex   2.082106e+00 -1.377233e+00 -1.344050e-01
      vertex   2.139269e+00 -1.230603e+00 -3.989336e-01
      vertex   4.639269e+00 2.304931e+00 2.101066e+00
    endloop
  endfacet
  facet normal 8.622895e-01 -4.600568e-01 -2.116708e-01
    outer loop
      vertex   4.639269e+00 2.304931e+00 2.101066e+00
      vertex   2.139269e+00 -1.230603e+00 -3.989336e-01
      vertex   4.664002e+00 2.470216e+00 1.842585e+00
    endloop
  endfacet
  facet normal 8.622895e-01 -4.600565e-01 -2.116715e-01
    outer loop
      vertex   2.139269e+00 -1.230603e+00 -3.989336e-01
      vertex   2.164002e+00 -1.065318e+00 -6.574149e-01
      vertex   4.664002e+00 2.470216e+00 1.842585e+00
    endloop
  endfacet
  facet normal 8.656284e-01 -3.905816e-01 -3.132626e-01
    outer loop
      vertex   4.664002e+00 2.470216e+00 1.842585e+00
      vertex   2.164002e+00 -1.065318e+00 -6.574149e-01
      vertex   4.655932e+00 2.651650e+00 1.594069e+00
    endloop
  endfacet
  facet normal 8.656284e-01 -3.905816e-01 -3.132627e-01
    outer loop
      vertex   2.164002e+00 -1.065318e+00 -6.574149e-01
      vertex   2.155931e+00 -8.838835e-01 -9.059314e-01
      vertex   4.655932e+00 2.651650e+00 1.594069e+00
    endloop
  endfacet
  facet normal 8.558451e-01 -3.151841e-01 -4.101076e-01
    outer loop
      vertex   4.655932e+00 2.651650e+00 1.594069e+00
      vertex   2.155931e+00 -8.838835e-01 -9.059314e-01
      vertex   4.615179e+00 2.846483e+00 1.359286e+00
    endloop
  endfacet
  facet normal 8.558451e-01 -3.151842e-01 -4.101074e-01
    outer loop
      vertex   2.155931e+00 -8.838835e-01 -9.059314e-01
      vertex   2.115179e+00 -6.890506e-01 -1.140714e+00
      vertex   4.615179e+00 2.846483e+00 1.359286e+00
    endloop
  endfacet
  facet normal 8.330878e-01 -2.350091e-01 -5.007348e-01
    outer loop
      vertex   4.615179e+00 2.846483e+00 1.359286e+00
      vertex   2.115179e+00 -6.890506e-01 -1.140714e+00
      vertex   4.542362e+00 3.051761e+00 1.141795e+00
    endloop
  endfacet
  facet normal 8.330881e-01 -2.350096e-01 -5.007342e-01
    outer loop
      vertex   2.115179e+00 -6.890506e-01 -1.140714e+00
      vertex   2.042362e+00 -4.837724e-01 -1.358205e+00
      vertex   4.542362e+00 3.051761e+00 1.141795e+00
    endloop
  endfacet
  facet normal 7.977034e-01 -1.512751e-01 -5.837681e-01
    outer loop
      vertex   4.542362e+00 3.051761e+00 1.141795e+00
      vertex   2.042362e+00 -4.837724e-01 -1.358205e+00
      vertex   4.438586e+00 3.264373e+00 9.448931e-01
    endloop
  endfacet
  facet normal 7.977029e-01 -1.512743e-01 -5.837689e-01
    outer loop
      vertex   2.042362e+00 -4.837724e-01 -1.358205e+00
      vertex   1.938586e+00 -2.711607e-01 -1.555107e+00
      vertex   4.438586e+00 3.264373e+00 9.448931e-01
    endloop
  endfacet
  facet normal 7.502236e-01 -6.524214e-02 -6.579574e-01
    outer loop
      vertex   4.438586e+00 3.264373e+00 9.448931e-01
      vertex   1.938586e+00 -2.711607e-01 -1.555107e+00
      vertex   4.305422e+00 3.481095e+00 7.715655e-01
    endloop
  endfacet
  facet normal 7.502237e-01 -6.524228e-02 -6.579573e-01
    outer loop
      vertex   1.938586e+00 -2.711607e-01 -1.555107e+00
      vertex   1.805422e+00 -5.443849e-02 -1.728434e+00
      vertex   4.305422e+00 3.481095e+00 7.715655e-01
    endloop
  endfacet
  facet normal 6.913736e-01 2.177578e-02 -7.221692e-01
    outer loop
      vertex   4.305422e+00 3.481095e+00 7.715655e-01
      vertex   1.805422e+00 -5.443849e-02 -1.728434e+00
      vertex   4.144890e+00 3.698643e+00 6.244389e-01
    endloop
  endfacet
  facet normal 6.913738e-01 2.177555e-02 -7.221691e-01
    outer loop
      vertex   1.805422e+00 -5.443849e-02 -1.728434e+00
      vertex   1.644890e+00 1.631090e-01 -1.875561e+00
      vertex   4.144890e+00 3.698643e+00 6.244389e-01
    endloop
  endfacet
  facet normal 6.220438e-01 1.084630e-01 -7.754336e-01
    outer loop
      vertex   4.144890e+00 3.698643e+00 6.244389e-01
      vertex   1.644890e+00 1.631090e-01 -1.875561e+00
      vertex   3.959424e+00 3.913718e+00 5.057433e-01
    endloop
  endfacet
  facet normal 6.220440e-01 1.084628e-01 -7.754335e-01
    outer loop
      vertex   1.644890e+00 1.631090e-01 -1.875561e+00
      vertex   1.459424e+00 3.781838e-01 -1.994257e+00
      vertex   3.959424e+00 3.913718e+00 5.057433e-01
    endloop
  endfacet
  facet normal 5.432814e-01 1.935095e-01 -8.169451e-01
    outer loop
      vertex   3.959424e+00 3.913718e+00 5.057433e-01
      vertex   1.459424e+00 3.781838e-01 -1.994257e+00
      vertex   3.751834e+00 4.123060e+00 4.172793e-01
    endloop
  endfacet
  facet normal 5.432813e-01 1.935096e-01 -8.169452e-01
    outer loop
      vertex   1.459424e+00 3.781838e-01 -1.994257e+00
      vertex   1.251834e+00 5.875259e-01 -2.082721e+00
      vertex   3.751834e+00 4.123060e+00 4.172793e-01
    endloop
  endfacet
  facet normal 4.562852e-01 2.756206e-01 -8.460716e-01
    outer loop
      vertex   3.751834e+00 4.123060e+00 4.172793e-01
      vertex   1.251834e+00 5.875259e-01 -2.082721e+00
      vertex   3.525267e+00 4.323495e+00 3.603871e-01
    endloop
  endfacet
  facet normal 4.562852e-01 2.756206e-01 -8.460716e-01
    outer loop
      vertex   1.251834e+00 5.875259e-01 -2.082721e+00
      vertex   1.025267e+00 7.879616e-01 -2.139613e+00
      vertex   3.525267e+00 4.323495e+00 3.603871e-01
    endloop
  endfacet
  facet normal 3.623728e-01 3.535531e-01 -8.623724e-01
    outer loop
      vertex   3.525267e+00 4.323495e+00 3.603871e-01
      vertex   1.025267e+00 7.879616e-01 -2.139613e+00
      vertex   3.283159e+00 4.511986e+00 3.359292e-01
    endloop
  endfacet
  facet normal 3.623727e-01 3.535532e-01 -8.623724e-01
    outer loop
      vertex   1.025267e+00 7.879616e-01 -2.139613e+00
      vertex   7.831588e-01 9.764522e-01 -2.164071e+00
      vertex   3.283159e+00 4.511986e+00 3.359292e-01
    endloop
  endfacet
  facet normal 2.629661e-01 4.261270e-01 -8.656007e-01
    outer loop
      vertex   3.283159e+00 4.511986e+00 3.359292e-01
      vertex   7.831588e-01 9.764522e-01 -2.164071e+00
      vertex   3.029178e+00 4.685676e+00 3.442763e-01
    endloop
  endfacet
  facet normal 2.629666e-01 4.261267e-01 -8.656007e-01
    outer loop
      vertex   7.831588e-01 9.764522e-01 -2.164071e+00
      vertex   5.291777e-01 1.150142e+00 -2.155724e+00
      vertex   3.029178e+00 4.685676e+00 3.442763e-01
    endloop
  endfacet
  facet normal 1.595731e-01 4.922413e-01 -8.557073e-01
    outer loop
      vertex   3.029178e+00 4.685676e+00 3.442763e-01
      vertex   5.291777e-01 1.150142e+00 -2.155724e+00
      vertex   2.767176e+00 4.841929e+00 3.853022e-01
    endloop
  endfacet
  facet normal 1.595726e-01 4.922415e-01 -8.557072e-01
    outer loop
      vertex   5.291777e-01 1.150142e+00 -2.155724e+00
      vertex   2.671758e-01 1.306395e+00 -2.114698e+00
      vertex   2.767176e+00 4.841929e+00 3.853022e-01
    endloop
  endfacet
  facet normal 5.376242e-02 5.508928e-01 -8.328425e-01
    outer loop
      vertex   2.767176e+00 4.841929e+00 3.853022e-01
      vertex   2.671758e-01 1.306395e+00 -2.114698e+00
      vertex   2.501124e+00 4.978380e+00 4.583842e-01
    endloop
  endfacet
  facet normal 5.376234e-02 5.508929e-01 -8.328425e-01
    outer loop
      vertex   2.671758e-01 1.306395e+00 -2.114698e+00
      vertex   1.123784e-03 1.442846e+00 -2.041616e+00
      vertex   2.501124e+00 4.978380e+00 4.583842e-01
    endloop
  endfacet
  facet normal -5.286509e-02 6.011944e-01 -7.973522e-01
    outer loop
      vertex   2.501124e+00 4.978380e+00 4.583842e-01
      vertex   1.123784e-03 1.442846e+00 -2.041616e+00
      vertex   2.235054e+00 5.092958e+00 5.624158e-01
    endloop
  endfacet
  facet normal -5.286549e-02 6.011946e-01 -7.973521e-01
    outer loop
      vertex   1.123784e-03 1.442846e+00 -2.041616e+00
      vertex   -2.649458e-01 1.557424e+00 -1.937584e+00
      vertex   2.235054e+00 5.092958e+00 5.624158e-01
    endloop
  endfacet
  facet normal -1.586882e-01 6.423813e-01 -7.497762e-01
    outer loop
      vertex   2.235054e+00 5.092958e+00 5.624158e-01
      vertex   -2.649458e-01 1.557424e+00 -1.937584e+00
      vertex   1.973001e+00 5.183928e+00 6.958184e-01
    endloop
  endfacet
  facet normal -1.586880e-01 6.423812e-01 -7.497763e-01
    outer loop
      vertex   -2.649458e-01 1.557424e+00 -1.937584e+00
      vertex   -5.269994e-01 1.648394e+00 -1.804182e+00
      vertex   1.973001e+00 5.183928e+00 6.958184e-01
    endloop
  endfacet
  facet normal -2.621120e-01 6.738323e-01 -6.908309e-01
    outer loop
      vertex   1.973001e+00 5.183928e+00 6.958184e-01
      vertex   -5.269994e-01 1.648394e+00 -1.804182e+00
      vertex   1.718937e+00 5.249909e+00 8.565713e-01
    endloop
  endfacet
  facet normal -2.621120e-01 6.738323e-01 -6.908309e-01
    outer loop
      vertex   -5.269994e-01 1.648394e+00 -1.804182e+00
      vertex   -7.810634e-01 1.714375e+00 -1.643429e+00
      vertex   1.718937e+00 5.249909e+00 8.565713e-01
    endloop
  endfacet
  facet normal -3.615566e-01 6.950670e-01 -6.214166e-01
    outer loop
      vertex   -7.810634e-01 1.714375e+00 -1.643429e+00
      vertex   1.476712e+00 5.289901e+00 1.042237e+00
      vertex   1.718937e+00 5.249909e+00 8.565713e-01
    endloop
  endfacet
  facet normal -3.615558e-01 6.950669e-01 -6.214172e-01
    outer loop
      vertex   -7.810634e-01 1.714375e+00 -1.643429e+00
      vertex   -1.023288e+00 1.754368e+00 -1.457763e+00
      vertex   1.476712e+00 5.289901e+00 1.042237e+00
    endloop
  endfacet
  facet normal 5.000021e-01 7.071038e-01 5.000021e-01
    outer loop
      vertex   1.476712e+00 5.289901e+00 1.042237e+00
      vertex   1.250000e+00 5.303301e+00 1.250000e+00
      vertex   1.042237e+00 5.289901e+00 1.476712e+00
    endloop
  endfacet
  facet normal 4.999986e-01 7.071087e-01 4.999986e-01
    outer loop
      vertex   1.476712e+00 5.289901e+00 1.042237e+00
      vertex   1.042237e+00 5.289901e+00 1.476712e+00
      vertex   1.718937e+00 5.249909e+00 8.565713e-01
    endloop
  endfacet
  facet normal 4.999986e-01 7.071087e-01 4.999986e-01
    outer loop
      vertex   1.042237e+00 5.289901e+00 1.476712e+00
      vertex   8.565713e-01 5.249909e+00 1.718937e+00
      vertex   1.718937e+00 5.249909e+00 8.565713e-01
    endloop
  endfacet
  facet normal 4.999985e-01 7.071089e-01 4.999985e-01
    outer loop
      vertex   8.565713e-01 5.249909e+00 1.718937e+00
      vertex   1.973001e+00 5.183928e+00 6.958184e-01
      vertex   1.718937e+00 5.249909e+00 8.565713e-01
    endloop
  endfacet
  facet normal 4.999985e-01 7.071089e-01 4.999985e-01
    outer loop
      vertex   8.565713e-01 5.249909e+00 1.718937e+00
      vertex   6.958184e-01 5.183928e+00 1.973001e+00
      vertex   1.973001e+00 5.183928e+00 6.958184e-01
    endloop
  endfacet
  facet normal 4.999995e-01 7.071074e-01 4.999995e-01
    outer loop
      vertex   6.958184e-01 5.183928e+00 1.973001e+00
      vertex   2.235054e+00 5.092958e+00 5.624158e-01
      vertex   1.973001e+00 5.183928e+00 6.958184e-01
    endloop
  endfacet
  facet normal 4.999995e-01 7.071074e-01 4.999995e-01
    outer loop
      vertex   6.958184e-01 5.183928e+00 1.973001e+00
      vertex   5.624158e-01 5.092958e+00 2.235054e+00
      vertex   2.235054e+00 5.092958e+00 5.624158e-01
    endloop
  endfacet
  facet normal 5.000013e-01 7.071049e-01 5.000013e-01
    outer loop
      vertex   5.624158e-01 5.092958e+00 2.235054e+00
      vertex   2.501124e+00 4.978380e+00 4.583842e-01
      vertex   2.235054e+00 5.092958e+00 5.624158e-01
    endloop
  endfacet
  facet normal 5.000013e-01 7.071049e-01 5.000013e-01
    outer loop
      vertex   5.624158e-01 5.092958e+00 2.235054e+00
      vertex   4.583842e-01 4.978380e+00 2.501124e+00
      vertex   2.501124e+00 4.978380e+00 4.583842e-01
    endloop
  endfacet
  facet normal 4.999991e-01 7.071080e-01 4.999991e-01
    outer loop
      vertex   4.583842e-01 4.978380e+00 2.501124e+00
      vertex   2.767176e+00 4.841929e+00 3.853022e-01
      vertex   2.501124e+00 4.978380e+00 4.583842e-01
    endloop
  endfacet
  facet normal 4.999991e-01 7.071080e-01 4.999991e-01
    outer loop
      vertex   4.583842e-01 4.978380e+00 2.501124e+00
      vertex   3.853022e-01 4.841929e+00 2.767176e+00
      vertex   2.767176e+00 4.841929e+00 3.853022e-01
    endloop
  endfacet
  facet normal 5.000006e-01 7.071060e-01 5.000006e-01
    outer loop
      vertex   3.853022e-01 4.841929e+00 2.767176e+00
      vertex   3.029178e+00 4.685676e+00 3.442763e-01
      vertex   2.767176e+00 4.841929e+00 3.853022e-01
    endloop
  endfacet
  facet normal 5.000006e-01 7.071060e-01 5.000006e-01
    outer loop
      vertex   3.853022e-01 4.841929e+00 2.767176e+00
      vertex   3.442763e-01 4.685676e+00 3.029178e+00
      vertex   3.029178e+00 4.685676e+00 3.442763e-01
    endloop
  endfacet
  facet normal 4.999995e-01 7.071074e-01 4.999995e-01
    outer loop
      vertex   3.442763e-01 4.685676e+00 3.029178e+00
      vertex   3.283159e+00 4.511986e+00 3.359292e-01
      vertex   3.029178e+00 4.685676e+00 3.442763e-01
    endloop
  endfacet
  facet normal 4.999995e-01 7.071074e-01 4.999995e-01
    outer loop
      vertex   3.442763e-01 4.685676e+00 3.029178e+00
      vertex   3.359292e-01 4.511986e+00 3.283159e+00
      vertex   3.283159e+00 4.511986e+00 3.359292e-01
    endloop
  endfacet
  facet normal 5.000006e-01 7.071060e-01 5.000006e-01
    outer loop
      vertex   3.359292e-01 4.511986e+00 3.283159e+00
      vertex   3.525267e+00 4.323495e+00 3.603871e-01
      vertex   3.283159e+00 4.511986e+00 3.359292e-01
    endloop
  endfacet
  facet normal 5.000006e-01 7.071060e-01 5.000006e-01
    outer loop
      vertex   3.359292e-01 4.511986e+00 3.283159e+00
      vertex   3.603871e-01 4.323495e+00 3.525267e+00
      vertex   3.525267e+00 4.323495e+00 3.603871e-01
    endloop
  endfacet
  facet normal 4.999996e-01 7.071073e-01 4.999996e-01
    outer loop
      vertex   3.603871e-01 4.323495e+00 3.525267e+00
      vertex   3.751834e+00 4.123060e+00 4.172793e-01
      vertex   3.525267e+00 4.323495e+00 3.603871e-01
    endloop
  endfacet
  facet normal 4.999996e-01 7.071073e-01 4.999996e-01
    outer loop
      vertex   3.603871e-01 4.323495e+00 3.525267e+00
      vertex   4.172793e-01 4.123060e+00 3.751834e+00
      vertex   3.751834e+00 4.123060e+00 4.172793e-01
    endloop
  endfacet
  facet normal 5.000001e-01 7.071067e-01 5.000001e-01
    outer loop
      vertex   4.172793e-01 4.123060e+00 3.751834e+00
      vertex   3.959424e+00 3.913718e+00 5.057433e-01
      vertex   3.751834e+00 4.123060e+00 4.172793e-01
    endloop
  endfacet
  facet normal 5.000001e-01 7.071067e-01 5.000001e-01
    outer loop
      vertex   4.172793e-01 4.123060e+00 3.751834e+00
      vertex   5.057433e-01 3.913718e+00 3.959424e+00
      vertex   3.959424e+00 3.913718e+00 5.057433e-01
    endloop
  endfacet
  facet normal 5.000000e-01 7.071068e-01 5.000000e-01
    outer loop
      vertex   5.057433e-01 3.913718e+00 3.959424e+00
      vertex   4.144890e+00 3.698643e+00 6.244389e-01
      vertex   3.959424e+00 3.913718e+00 5.057433e-01
    endloop
  endfacet
  facet normal 5.000000e-01 7.071068e-01 5.000000e-01
    outer loop
      vertex   5.057433e-01 3.913718e+00 3.959424e+00
      vertex   6.244389e-01 3.698643e+00 4.144890e+00
      vertex   4.144890e+00 3.698643e+00 6.244389e-01
    endloop
  endfacet
  facet normal 4.999999e-01 7.071069e-01 4.999999e-01
    outer loop
      vertex   6.244389e-01 3.698643e+00 4.144890e+00
      vertex   4.305422e+00 3.481095e+00 7.715655e-01
      vertex   4.144890e+00 3.698643e+00 6.244389e-01
    endloop
  endfacet
  facet normal 4.999999e-01 7.071069e-01 4.999999e-01
    outer loop
      vertex   6.244389e-01 3.698643e+00 4.144890e+00
      vertex   7.715655e-01 3.481095e+00 4.305422e+00
      vertex   4.305422e+00 3.481095e+00 7.715655e-01
    endloop
  endfacet
  facet normal 5.000000e-01 7.071068e-01 5.000000e-01
    outer loop
      vertex   7.715655e-01 3.481095e+00 4.305422e+00
      vertex   4.438586e+00 3.264373e+00 9.448931e-01
      vertex   4.305422e+00 3.481095e+00 7.715655e-01
    endloop
  endfacet
  facet normal 5.000000e-01 7.071068e-01 5.000000e-01
    outer loop
      vertex   7.715655e-01 3.481095e+00 4.305422e+00
      vertex   9.448931e-01 3.264373e+00 4.438586e+00
      vertex   4.438586e+00 3.264373e+00 9.448931e-01
    endloop
  endfacet
  facet normal 5.000004e-01 7.071062e-01 5.000004e-01
    outer loop
      vertex   9.448931e-01 3.264373e+00 4.438586e+00
      vertex   4.542362e+00 3.051761e+00 1.141795e+00
      vertex   4.438586e+00 3.264373e+00 9.448931e-01
    endloop
  endfacet
  facet normal 5.000004e-01 7.071062e-01 5.000004e-01
    outer loop
      vertex   9.448931e-01 3.264373e+00 4.438586e+00
      vertex   1.141795e+00 3.051761e+00 4.542362e+00
      vertex   4.542362e+00 3.051761e+00 1.141795e+00
    endloop
  endfacet
  facet normal 4.999997e-01 7.071073e-01 4.999997e-01
    outer loop
      vertex   1.141795e+00 3.051761e+00 4.542362e+00
      vertex   4.615179e+00 2.846483e+00 1.359286e+00
      vertex   4.542362e+00 3.051761e+00 1.141795e+00
    endloop
  endfacet
  facet normal 4.999997e-01 7.071073e-01 4.999997e-01
    outer loop
      vertex   1.141795e+00 3.051761e+00 4.542362e+00
      vertex   1.359286e+00 2.846483e+00 4.615179e+00
      vertex   4.615179e+00 2.846483e+00 1.359286e+00
    endloop
  endfacet
  facet normal 5.000001e-01 7.071066e-01 5.000001e-01
    outer loop
      vertex   1.359286e+00 2.846483e+00 4.615179e+00
      vertex   4.655932e+00 2.651650e+00 1.594069e+00
      vertex   4.615179e+00 2.846483e+00 1.359286e+00
    endloop
  endfacet
  facet normal 5.000001e-01 7.071066e-01 5.000001e-01
    outer loop
      vertex   1.359286e+00 2.846483e+00 4.615179e+00
      vertex   1.594069e+00 2.651650e+00 4.655932e+00
      vertex   4.655932e+00 2.651650e+00 1.594069e+00
    endloop
  endfacet
  facet normal 4.999999e-01 7.071069e-01 4.999999e-01
    outer loop
      vertex   1.594069e+00 2.651650e+00 4.655932e+00
      vertex   4.664002e+00 2.470216e+00 1.842585e+00
      vertex   4.655932e+00 2.651650e+00 1.594069e+00
    endloop
  endfacet
  facet normal 4.999999e-01 7.071069e-01 4.999999e-01
    outer loop
      vertex   1.594069e+00 2.651650e+00 4.655932e+00
      vertex   1.842585e+00 2.470216e+00 4.664002e+00
      vertex   4.664002e+00 2.470216e+00 1.842585e+00
    endloop
  endfacet
  facet normal 5.000003e-01 7.071063e-01 5.000003e-01
    outer loop
      vertex   1.842585e+00 2.470216e+00 4.664002e+00
      vertex   4.639269e+00 2.304931e+00 2.101066e+00
      vertex   4.664002e+00 2.470216e+00 1.842585e+00
    endloop
  endfacet
  facet normal 5.000003e-01 7.071063e-01 5.000003e-01
    outer loop
      vertex   1.842585e+00 2.470216e+00 4.664002e+00
      vertex   2.101066e+00 2.304931e+00 4.639269e+00
      vertex   4.639269e+00 2.304931e+00 2.101066e+00
    endloop
  endfacet
  facet normal 4.999998e-01 7.071071e-01 4.999998e-01
    outer loop
      vertex   2.101066e+00 2.304931e+00 4.639269e+00
      vertex   4.582106e+00 2.158301e+00 2.365595e+00
      vertex   4.639269e+00 2.304931e+00 2.101066e+00
    endloop
  endfacet
  facet normal 4.999998e-01 7.071071e-01 4.999998e-01
    outer loop
      vertex   2.101066e+00 2.304931e+00 4.639269e+00
      vertex   2.365595e+00 2.158301e+00 4.582106e+00
      vertex   4.582106e+00 2.158301e+00 2.365595e+00
    endloop
  endfacet
  facet normal 5.000006e-01 7.071059e-01 5.000006e-01
    outer loop
      vertex   2.365595e+00 2.158301e+00 4.582106e+00
      vertex   4.493380e+00 2.032548e+00 2.632162e+00
      vertex   4.582106e+00 2.158301e+00 2.365595e+00
    endloop
  endfacet
  facet normal 5.000006e-01 7.071059e-01 5.000006e-01
    outer loop
      vertex   2.365595e+00 2.158301e+00 4.582106e+00
      vertex   2.632162e+00 2.032548e+00 4.493380e+00
      vertex   4.493380e+00 2.032548e+00 2.632162e+00
    endloop
  endfacet
  facet normal 4.999991e-01 7.071080e-01 4.999991e-01
    outer loop
      vertex   2.632162e+00 2.032548e+00 4.493380e+00
      vertex   4.374438e+00 1.929579e+00 2.896725e+00
      vertex   4.493380e+00 2.032548e+00 2.632162e+00
    endloop
  endfacet
  facet normal 4.999991e-01 7.071080e-01 4.999991e-01
    outer loop
      vertex   2.632162e+00 2.032548e+00 4.493380e+00
      vertex   2.896725e+00 1.929579e+00 4.374438e+00
      vertex   4.374438e+00 1.929579e+00 2.896725e+00
    endloop
  endfacet
  facet normal 4.999999e-01 7.071069e-01 4.999999e-01
    outer loop
      vertex   2.896725e+00 1.929579e+00 4.374438e+00
      vertex   4.227081e+00 1.850955e+00 3.155274e+00
      vertex   4.374438e+00 1.929579e+00 2.896725e+00
    endloop
  endfacet
  facet normal 4.999999e-01 7.071069e-01 4.999999e-01
    outer loop
      vertex   2.896725e+00 1.929579e+00 4.374438e+00
      vertex   3.155274e+00 1.850955e+00 4.227081e+00
      vertex   4.227081e+00 1.850955e+00 3.155274e+00
    endloop
  endfacet
  facet normal 5.000012e-01 7.071051e-01 5.000012e-01
    outer loop
      vertex   3.155274e+00 1.850955e+00 4.227081e+00
      vertex   4.053543e+00 1.797866e+00 3.403890e+00
      vertex   4.227081e+00 1.850955e+00 3.155274e+00
    endloop
  endfacet
  facet normal 5.000012e-01 7.071051e-01 5.000012e-01
    outer loop
      vertex   3.155274e+00 1.850955e+00 4.227081e+00
      vertex   3.403890e+00 1.797866e+00 4.053543e+00
      vertex   4.053543e+00 1.797866e+00 3.403890e+00
    endloop
  endfacet
  facet normal 4.999967e-01 7.071115e-01 4.999967e-01
    outer loop
      vertex   3.403890e+00 1.797866e+00 4.053543e+00
      vertex   3.856454e+00 1.771120e+00 3.638804e+00
      vertex   4.053543e+00 1.797866e+00 3.403890e+00
    endloop
  endfacet
  facet normal 4.999967e-01 7.071115e-01 4.999967e-01
    outer loop
      vertex   3.403890e+00 1.797866e+00 4.053543e+00
      vertex   3.638804e+00 1.771120e+00 3.856454e+00
      vertex   3.856454e+00 1.771120e+00 3.638804e+00
    endloop
  endfacet
endsolid
